<?xml version="1.0" encoding="utf-8"?>
<!-- Generator: Adobe Illustrator 28.0.0, SVG Export Plug-In . SVG Version: 6.00 Build 0)  -->
<svg version="1.1" id="Layer_1" xmlns="http://www.w3.org/2000/svg" xmlns:xlink="http://www.w3.org/1999/xlink" x="0px" y="0px"
	 viewBox="0 0 595.28 841.89" style="enable-background:new 0 0 595.28 841.89;" xml:space="preserve">
<style type="text/css">
	.st0{fill:#F2BDD7;}
	.st1{fill:none;stroke:#2E3192;stroke-width:10;stroke-miterlimit:10;}
	.st2{fill:none;stroke:#2E3192;stroke-width:9.8525;stroke-miterlimit:10;}
	.st3{fill:none;stroke:#2E3192;stroke-width:9.7049;stroke-miterlimit:10;}
	.st4{fill:none;stroke:#2E3192;stroke-width:9.5574;stroke-miterlimit:10;}
	.st5{fill:none;stroke:#2E3192;stroke-width:9.4098;stroke-miterlimit:10;}
	.st6{fill:none;stroke:#2E3192;stroke-width:9.2623;stroke-miterlimit:10;}
	.st7{fill:none;stroke:#2E3192;stroke-width:9.1148;stroke-miterlimit:10;}
	.st8{fill:none;stroke:#2E3192;stroke-width:8.9672;stroke-miterlimit:10;}
	.st9{fill:none;stroke:#2E3192;stroke-width:8.8197;stroke-miterlimit:10;}
	.st10{fill:none;stroke:#2E3192;stroke-width:8.6721;stroke-miterlimit:10;}
	.st11{fill:none;stroke:#2E3192;stroke-width:8.5246;stroke-miterlimit:10;}
	.st12{fill:none;stroke:#2E3192;stroke-width:8.377;stroke-miterlimit:10;}
	.st13{fill:none;stroke:#2E3192;stroke-width:8.2295;stroke-miterlimit:10;}
	.st14{fill:none;stroke:#2E3192;stroke-width:8.082;stroke-miterlimit:10;}
	.st15{fill:none;stroke:#2E3192;stroke-width:7.9344;stroke-miterlimit:10;}
	.st16{fill:none;stroke:#2E3192;stroke-width:7.7869;stroke-miterlimit:10;}
	.st17{fill:none;stroke:#2E3192;stroke-width:7.6393;stroke-miterlimit:10;}
	.st18{fill:none;stroke:#2E3192;stroke-width:7.4918;stroke-miterlimit:10;}
	.st19{fill:none;stroke:#2E3192;stroke-width:7.3443;stroke-miterlimit:10;}
	.st20{fill:none;stroke:#2E3192;stroke-width:7.1967;stroke-miterlimit:10;}
	.st21{fill:none;stroke:#2E3192;stroke-width:7.0492;stroke-miterlimit:10;}
	.st22{fill:none;stroke:#2E3192;stroke-width:6.9016;stroke-miterlimit:10;}
	.st23{fill:none;stroke:#2E3192;stroke-width:6.7541;stroke-miterlimit:10;}
	.st24{fill:none;stroke:#2E3192;stroke-width:6.6066;stroke-miterlimit:10;}
	.st25{fill:none;stroke:#2E3192;stroke-width:6.459;stroke-miterlimit:10;}
	.st26{fill:none;stroke:#2E3192;stroke-width:6.3115;stroke-miterlimit:10;}
	.st27{fill:none;stroke:#2E3192;stroke-width:6.1639;stroke-miterlimit:10;}
	.st28{fill:none;stroke:#2E3192;stroke-width:6.0164;stroke-miterlimit:10;}
	.st29{fill:none;stroke:#2E3192;stroke-width:5.8689;stroke-miterlimit:10;}
	.st30{fill:none;stroke:#2E3192;stroke-width:5.7213;stroke-miterlimit:10;}
	.st31{fill:none;stroke:#2E3192;stroke-width:5.5738;stroke-miterlimit:10;}
	.st32{fill:none;stroke:#2E3192;stroke-width:5.4262;stroke-miterlimit:10;}
	.st33{fill:none;stroke:#2E3192;stroke-width:5.2787;stroke-miterlimit:10;}
	.st34{fill:none;stroke:#2E3192;stroke-width:5.1311;stroke-miterlimit:10;}
	.st35{fill:none;stroke:#2E3192;stroke-width:4.9836;stroke-miterlimit:10;}
	.st36{fill:none;stroke:#2E3192;stroke-width:4.8361;stroke-miterlimit:10;}
	.st37{fill:none;stroke:#2E3192;stroke-width:4.6885;stroke-miterlimit:10;}
	.st38{fill:none;stroke:#2E3192;stroke-width:4.541;stroke-miterlimit:10;}
	.st39{fill:none;stroke:#2E3192;stroke-width:4.3934;stroke-miterlimit:10;}
	.st40{fill:none;stroke:#2E3192;stroke-width:4.2459;stroke-miterlimit:10;}
	.st41{fill:none;stroke:#2E3192;stroke-width:4.0984;stroke-miterlimit:10;}
	.st42{fill:none;stroke:#2E3192;stroke-width:3.9508;stroke-miterlimit:10;}
	.st43{fill:none;stroke:#2E3192;stroke-width:3.8033;stroke-miterlimit:10;}
	.st44{fill:none;stroke:#2E3192;stroke-width:3.6557;stroke-miterlimit:10;}
	.st45{fill:none;stroke:#2E3192;stroke-width:3.5082;stroke-miterlimit:10;}
	.st46{fill:none;stroke:#2E3192;stroke-width:3.3607;stroke-miterlimit:10;}
	.st47{fill:none;stroke:#2E3192;stroke-width:3.2131;stroke-miterlimit:10;}
	.st48{fill:none;stroke:#2E3192;stroke-width:3.0656;stroke-miterlimit:10;}
	.st49{fill:none;stroke:#2E3192;stroke-width:2.918;stroke-miterlimit:10;}
	.st50{fill:none;stroke:#2E3192;stroke-width:2.7705;stroke-miterlimit:10;}
	.st51{fill:none;stroke:#2E3192;stroke-width:2.623;stroke-miterlimit:10;}
	.st52{fill:none;stroke:#2E3192;stroke-width:2.4754;stroke-miterlimit:10;}
	.st53{fill:none;stroke:#2E3192;stroke-width:2.3279;stroke-miterlimit:10;}
	.st54{fill:none;stroke:#2E3192;stroke-width:2.1803;stroke-miterlimit:10;}
	.st55{fill:none;stroke:#2E3192;stroke-width:2.0328;stroke-miterlimit:10;}
	.st56{fill:none;stroke:#2E3192;stroke-width:1.8852;stroke-miterlimit:10;}
	.st57{fill:none;stroke:#2E3192;stroke-width:1.7377;stroke-miterlimit:10;}
	.st58{fill:none;stroke:#2E3192;stroke-width:1.5902;stroke-miterlimit:10;}
	.st59{fill:none;stroke:#2E3192;stroke-width:1.4426;stroke-miterlimit:10;}
	.st60{fill:none;stroke:#2E3192;stroke-width:1.2951;stroke-miterlimit:10;}
	.st61{fill:none;stroke:#2E3192;stroke-width:1.1475;stroke-miterlimit:10;}
	.st62{fill:none;stroke:#2E3192;stroke-miterlimit:10;}
	.st63{fill:#2E3192;}
	.st64{font-family:'TwCenMT-CondensedExtraBold';}
	.st65{font-size:50.2439px;}
	.st66{font-size:10px;}
</style>
<rect class="st0" width="595.28" height="841.89"/>
<g>
	<g>
		<path class="st1" d="M583.25,826.27c-188.9,1.51-378.23,2.07-567.12,0"/>
		<path class="st2" d="M583.25,815.93c-93.96,1.43-188.42,0.06-282.44-0.55c-94.8-0.61-190,2.54-284.68,0.55"/>
		<path class="st3" d="M583.25,805.58c-51.78,0.75-103.24-4.63-155.11-2.77c-41.9,1.5-83.64,1.9-125.57,1.34
			c-44.58-0.59-88.95-0.96-133.5-2.67c-51.22-1.96-101.86,5.11-152.94,4.09"/>
		<path class="st4" d="M583.25,795.24c-51.93,0.37-102.81-8.07-154.93-4.96c-41.24,2.47-82.01,3.26-123.33,2.34
			c-44.52-0.99-88.55-1.9-132.99-4.69c-52.63-3.31-103.52,7.82-155.86,7.31"/>
		<path class="st5" d="M583.25,784.89c-52.24-0.29-102.11-12.26-154.7-7.6c-40.49,3.59-79.97,4.89-120.62,3.53
			c-44.47-1.49-88.03-3.09-132.36-7.12c-54.53-4.96-105.42,10.79-159.44,11.19"/>
		<path class="st6" d="M583.25,774.55c-52.7-1.17-101.16-17.08-154.43-10.59c-39.7,4.83-77.55,6.75-117.55,4.87
			c-44.44-2.09-87.41-4.5-131.63-9.86c-56.81-6.88-107.52,13.93-163.52,15.58"/>
		<path class="st7" d="M583.25,764.2c-53.26-2.21-100.04-22.39-154.12-13.82c-38.88,6.17-74.85,8.79-114.23,6.3
			c-44.42-2.8-86.75-6.08-130.83-12.8c-59.29-9.04-109.79,17.14-167.94,20.32"/>
		<path class="st8" d="M583.25,753.86c-53.83-3.36-98.86-28.08-153.8-17.17c-38.07,7.55-71.96,10.97-110.78,7.79
			c-19.27-1.58-38.63-1.26-57.86-2.8c-24.39-1.95-48.14-8.65-72.13-13.06C126.85,717.26,76.44,749,16.13,753.86"/>
		<path class="st9" d="M583.25,743.51c-54.32-4.52-97.75-33.95-153.48-20.54c-37.33,8.98-68.93,13-107.31,9.29
			c-18.59-1.8-37.3-1.62-55.84-3.45c-24.88-2.45-48.95-10.27-73.31-15.48c-28.39-6.07-51.31-5.58-79.21,2.86
			c-32.78,9.92-63.64,23.69-97.97,27.31"/>
		<path class="st10" d="M583.25,733.17c-30.97-3.19-57.15-16.83-86.75-25.04c-23.48-6.52-43.22-5.36-66.42,1.23
			c-36.52,10.36-65.99,15.27-103.95,10.75c-17.93-2.14-35.99-1.99-53.87-4.07c-25.38-2.94-49.75-11.85-74.47-17.85
			c-29.48-7.15-51.8-6.37-80.67,3.38c-33.75,11.4-65.38,27.02-101,31.6"/>
		<path class="st11" d="M583.25,722.82c-54.83-6.6-96.09-45.45-152.88-26.89c-35.69,11.66-63.24,17.51-100.79,12.12
			c-17.34-2.49-34.73-2.37-52.02-4.64c-25.85-3.4-50.51-13.34-75.56-20.08c-30.47-8.19-52.27-7.13-82.01,3.85
			c-34.65,12.79-66.99,30.18-103.85,35.63"/>
		<path class="st12" d="M583.25,712.48c-54.85-7.35-95.58-50.64-152.64-29.64c-34.85,12.83-60.79,19.65-97.96,13.35
			c-16.81-2.85-33.58-2.7-50.36-5.13c-26.29-3.81-51.2-14.7-76.56-22.11c-31.31-9.15-52.7-7.81-83.18,4.26
			c-35.45,14.03-68.44,33.07-106.43,39.27"/>
		<path class="st13" d="M583.25,702.13c-54.79-7.83-95.26-55.18-152.44-31.97c-34.04,13.81-58.76,21.6-95.58,14.41
			c-16.37-3.2-32.56-2.99-48.95-5.52c-26.68-4.12-51.81-15.89-77.42-23.88c-31.94-9.96-53.09-8.39-84.1,4.58
			c-36.12,15.1-69.65,35.65-108.62,42.38"/>
		<path class="st14" d="M583.25,691.79c-54.73-7.96-95.05-58.85-152.32-33.77c-33.32,14.59-57.24,23.25-93.75,15.24
			c-16.06-3.52-31.74-3.2-47.86-5.77c-27-4.3-52.31-16.85-78.12-25.3c-32.31-10.58-53.4-8.84-84.73,4.79
			c-36.63,15.94-70.56,37.83-110.34,44.81"/>
		<path class="st15" d="M583.25,681.44c-54.74-7.7-94.89-61.45-152.27-34.92c-32.77,15.16-56.28,24.48-92.59,15.79
			c-15.88-3.8-31.15-3.31-47.16-5.85c-27.24-4.33-52.69-17.54-78.62-26.32c-32.4-10.97-53.63-9.15-84.99,4.87
			c-36.93,16.5-71.12,39.55-111.49,46.43"/>
		<path class="st16" d="M583.25,671.1c-54.89-7.13-94.65-62.63-152.26-35.3c-32.56,15.44-55.98,25.07-92.26,16.02
			c-15.84-3.95-30.9-3.29-46.92-5.77c-27.38-4.25-52.87-17.89-78.85-26.83c-32.2-11.08-53.74-9.26-84.89,4.82
			c-37,16.73-71.26,40.6-111.93,47.07"/>
		<path class="st17" d="M583.25,660.75c-55.18-7.14-93.48-62.17-151.56-35.24c-32.98,15.29-56.47,24.8-93.05,16.09
			c-15.85-3.77-31.05-3.18-47.04-5.65c-27.41-4.24-52.88-18.02-78.85-27.02c-32.15-11.15-53.8-9.25-84.9,4.82
			c-36.95,16.72-71.1,40.53-111.72,47"/>
		<path class="st18" d="M583.25,650.41c-55.55-7.18-91.37-61.45-150.16-35.1c-33.64,15.08-57.56,24.47-94.64,16.28
			c-15.9-3.51-31.35-2.95-47.33-5.44c-27.44-4.27-52.89-18.24-78.85-27.35c-32.08-11.26-53.77-9.34-84.82,4.73
			c-36.83,16.69-70.82,40.43-111.31,46.88"/>
		<path class="st19" d="M583.25,640.06c-32.54-4.21-53.54-24.49-82.7-36.91c-23.36-9.95-42.66-7.79-65.47,2.01
			c-34.5,14.82-59.17,24.1-96.93,16.56c-15.98-3.19-31.77-2.62-47.75-5.14c-27.48-4.33-52.9-18.53-78.85-27.78
			c-31.99-11.4-53.67-9.52-84.67,4.55C90.22,610,56.45,633.64,16.13,640.06"/>
		<path class="st20" d="M583.25,629.71c-31.86-4.14-51.46-24.25-79.77-36.67c-23.34-10.25-42.97-7.35-65.92,2.04
			c-35.51,14.53-61.22,23.69-99.78,16.91c-16.09-2.83-32.28-2.2-48.29-4.77c-27.51-4.42-52.92-18.89-78.85-28.31
			c-31.89-11.58-53.52-9.77-84.46,4.31c-36.43,16.58-69.94,40.13-110.05,46.49"/>
		<path class="st21" d="M583.25,619.37c-31.08-4.07-49.07-23.97-76.4-36.41c-23.24-10.58-43.4-6.87-66.44,2.08
			c-19.86,7.72-38.65,18.21-60.24,20.16c-14.41,1.31-28.63-0.7-42.83-2.84c-16.22-2.44-32.84-1.72-48.92-4.36
			c-27.55-4.52-52.94-19.29-78.85-28.9c-31.77-11.78-53.32-10.08-84.2,4.01c-36.17,16.51-69.39,39.95-109.24,46.25"/>
		<path class="st22" d="M583.25,609.02c-30.24-3.99-46.45-23.65-72.71-36.12c-23.07-10.95-43.94-6.36-66.99,2.13
			c-37.78,13.92-66.25,22.82-106.67,17.78c-16.37-2.04-33.44-1.18-49.62-3.9c-27.59-4.64-52.96-19.73-78.85-29.55
			c-31.65-11.99-53.09-10.43-83.91,3.68C88.6,579.47,55.7,602.79,16.13,609.02"/>
		<path class="st23" d="M583.25,598.68c-29.39-3.92-43.7-23.31-68.84-35.81c-22.81-11.34-44.59-5.85-67.57,2.18
			c-21.74,7.59-42.73,18.05-65.98,20.07c-14.83,1.29-29.74-0.35-44.5-1.81c-16.55-1.65-34.04-0.62-50.35-3.43
			c-27.63-4.75-52.99-20.2-78.85-30.22c-31.51-12.22-52.84-10.8-83.6,3.32c-35.59,16.34-68.16,39.55-107.43,45.7"/>
		<path class="st24" d="M583.25,588.33c-28.58-3.85-40.89-22.95-64.89-35.5c-22.47-11.75-45.33-5.35-68.15,2.23
			c-22.72,7.54-44.83,17.97-68.97,20.02c-15.07,1.28-30.33-0.14-45.37-1.28c-16.73-1.26-34.64-0.02-51.1-2.94
			c-27.68-4.91-53-20.66-78.85-30.91c-31.38-12.44-52.58-11.18-83.29,2.96c-35.29,16.25-67.52,39.34-106.49,45.42"/>
		<path class="st25" d="M583.25,577.99c-27.83-3.79-38.11-22.56-61.01-35.19c-22.06-12.17-46.15-4.86-68.73,2.28
			c-23.7,7.49-46.89,17.88-71.92,19.98c-15.32,1.28-30.9,0.06-46.23-0.75c-16.91-0.89-35.21,0.58-51.83-2.46
			c-27.73-5.07-53.02-21.12-78.85-31.59c-31.24-12.65-52.33-11.55-82.98,2.6c-34.99,16.16-66.88,39.14-105.56,45.13"/>
		<path class="st26" d="M583.25,567.64c-27.19-3.74-35.45-22.16-57.3-34.9c-21.6-12.59-47.02-4.41-69.29,2.32
			c-24.64,7.45-48.85,17.8-74.74,19.93c-15.57,1.28-31.44,0.26-47.05-0.25c-17.09-0.55-35.74,1.15-52.53-2
			c-27.78-5.22-53.03-21.56-78.85-32.24c-31.1-12.86-52.1-11.91-82.68,2.26c-34.7,16.08-66.28,38.94-104.67,44.87"/>
		<path class="st27" d="M583.25,557.3c-26.7-3.7-32.98-21.76-53.9-34.63c-21.11-12.99-47.89-4-69.8,2.36
			c-25.49,7.41-50.65,17.72-77.33,19.89c-15.8,1.28-31.93,0.44-47.78,0.21c-17.26-0.25-36.21,1.68-53.17-1.58
			c-27.82-5.35-53.04-21.97-78.85-32.84c-30.98-13.04-51.9-12.22-82.42,1.96c-34.44,16.01-65.72,38.75-103.86,44.62"/>
		<path class="st28" d="M583.25,546.95c-26.36-3.68-30.8-21.37-50.92-34.39c-20.63-13.36-48.73-3.65-70.26,2.39
			c-26.25,7.37-52.24,17.66-79.62,19.86c-16,1.28-32.33,0.59-48.39,0.61c-17.41,0.02-36.6,2.13-53.72-1.21
			c-27.86-5.45-53.06-22.33-78.85-33.37c-30.86-13.2-51.74-12.48-82.21,1.72c-34.22,15.94-65.23,38.59-103.15,44.4"/>
		<path class="st29" d="M583.25,536.61c-26.22-3.67-28.99-21-48.49-34.2c-20.19-13.68-49.46-3.37-70.65,2.41
			c-26.86,7.33-53.55,17.61-81.5,19.83c-16.15,1.28-32.64,0.7-48.85,0.92c-17.53,0.24-36.9,2.5-54.16-0.91
			c-27.9-5.51-53.07-22.64-78.85-33.81c-30.76-13.33-51.64-12.67-82.05,1.53c-34.04,15.9-64.82,38.45-102.57,44.23"/>
		<path class="st30" d="M583.25,526.26c-26.27-3.68-27.64-20.66-46.73-34.06c-19.85-13.93-50.04-3.16-70.95,2.42
			c-27.29,7.29-54.53,17.58-82.88,19.8c-16.25,1.28-32.82,0.76-49.13,1.14c-17.62,0.41-37.09,2.76-54.46-0.68
			c-27.94-5.53-53.09-22.87-78.85-34.15c-30.68-13.43-51.6-12.77-81.97,1.43c-33.92,15.87-64.53,38.34-102.15,44.1"/>
		<path class="st31" d="M583.25,515.92c-26.53-3.69-26.81-20.39-45.77-33.99c-19.64-14.09-50.4-3.04-71.14,2.42
			c-27.53,7.25-55.11,17.57-83.69,19.79c-16.27,1.26-32.86,0.75-49.19,1.24c-17.67,0.53-37.16,2.88-54.59-0.56
			c-27.96-5.51-53.11-23.02-78.85-34.36c-30.63-13.49-51.64-12.77-81.96,1.42c-33.86,15.86-64.35,38.26-101.92,44.03"/>
		<path class="st32" d="M583.25,505.57c-26.49-3.7-26.92-20.41-45.89-33.98c-19.71-14.1-50.35-3.18-71.12,2.4
			c-27.53,7.4-54.94,17.83-83.55,20.06c-16.32,1.27-32.95,0.79-49.33,1.05c-17.69,0.29-37.31,2.71-54.71-0.84
			c-27.89-5.69-53.09-22.6-78.92-33.77c-30.84-13.34-51.51-12.77-82.04,1.43c-33.8,15.73-64.18,37.61-101.55,43.64"/>
		<path class="st33" d="M583.25,495.23c-26.39-3.69-27.43-20.53-46.53-33.99c-19.93-14.05-50.09-3.28-70.98,2.61
			c-27.35,7.71-54.41,18.49-82.95,20.77c-16.53,1.32-33.31,0.65-49.88,0.43c-17.86-0.24-37.71,2.07-55.22-1.52
			c-27.78-5.7-53.1-21.61-79.07-32.33c-30.94-12.78-51.35-12.5-81.93,1.5c-33.53,15.35-63.66,36.43-100.57,42.54"/>
		<path class="st34" d="M583.25,484.88c-26.38-3.69-28.16-20.67-47.5-34.01c-20.25-13.98-49.72-3.28-70.77,3.04
			c-27.04,8.12-53.68,19.48-82.06,21.82c-16.88,1.4-33.88,0.3-50.75-0.56c-18.21-0.93-38.26,1.02-56.1-2.51
			c-27.67-5.47-53.17-20.21-79.28-30.28c-30.83-11.89-51.25-11.92-81.61,1.65c-33.08,14.78-62.8,34.91-99.05,40.86"/>
		<path class="st35" d="M583.25,474.54c-26.43-3.68-29.09-20.81-48.76-34.04c-20.65-13.89-49.27-3.22-70.49,3.64
			c-26.59,8.6-52.79,20.72-80.92,23.16c-17.32,1.5-34.67-0.1-51.9-1.86c-18.79-1.92-38.8-0.35-57.28-3.73
			c-27.56-5.04-53.29-18.49-79.54-27.73c-30.52-10.75-51.19-11.08-81.14,1.86c-32.49,14.04-61.67,33.1-97.1,38.69"/>
		<path class="st36" d="M583.25,464.19c-26.55-3.67-30.17-20.96-50.24-34.06c-21.11-13.78-48.77-3.12-70.17,4.39
			c-26.03,9.14-51.77,22.18-79.59,24.73c-17.89,1.64-35.6-0.77-53.25-3.4c-19.47-2.9-39.42-2.01-58.69-5.15
			c-27.46-4.46-53.44-16.49-79.84-24.76c-30.04-9.41-51.18-10.04-80.53,2.12c-31.78,13.18-60.32,31.05-94.8,36.13"/>
		<path class="st37" d="M583.25,453.85c-26.72-3.66-31.36-21.12-51.89-34.1c-21.6-13.66-48.24-3-69.81,5.25
			c-25.39,9.71-50.65,23.79-78.11,26.46c-18.52,1.81-36.68-1.58-54.77-5.12c-20.26-3.96-40.03-3.92-60.29-6.71
			c-27.38-3.77-53.62-14.3-80.18-21.49c-29.39-7.96-51.2-8.85-79.82,2.43c-30.99,12.21-58.8,28.82-92.24,33.28"/>
		<path class="st38" d="M583.25,443.5c-26.93-3.65-32.64-21.27-53.65-34.13c-22.13-13.54-47.71-2.88-69.43,6.18
			c-24.68,10.3-49.46,25.49-76.54,28.32c-19.18,2-37.89-2.52-56.4-6.96c-21.08-5.06-40.67-6.02-62.01-8.37
			c-27.32-3.02-53.82-11.98-80.54-18.03c-28.62-6.48-51.24-7.55-79.05,2.75c-30.13,11.17-57.19,26.45-89.5,30.24"/>
		<path class="st39" d="M583.25,433.16c-27.17-3.65-33.94-21.41-55.46-34.16c-22.66-13.43-47.19-2.78-69.04,7.15
			c-23.94,10.88-48.22,27.24-74.92,30.22c-19.83,2.22-39.2-3.54-58.08-8.86c-21.86-6.16-41.36-8.25-63.79-10.08
			c-27.29-2.23-54.03-9.6-80.9-14.46c-27.79-5.03-51.27-6.21-78.24,3.09c-29.24,10.09-55.52,24-86.68,27.1"/>
		<path class="st40" d="M583.25,422.81c-27.43-3.64-35.25-21.55-57.27-34.2c-23.18-13.31-46.72-2.71-68.64,8.11
			c-23.19,11.45-46.98,28.97-73.31,32.13c-20.44,2.45-40.56-4.63-59.76-10.76c-46.77-14.94-98.19-16.07-146.83-22.68
			c-26.95-3.66-51.26-4.88-77.44,3.43c-28.35,9-53.87,21.54-83.87,23.97"/>
		<path class="st41" d="M583.25,412.47c-27.69-3.64-36.52-21.68-59.02-34.23c-23.68-13.2-46.3-2.68-68.26,9.04
			c-22.46,11.98-45.75,30.64-71.74,33.97c-21,2.69-41.92-5.72-61.37-12.59c-47.53-16.79-98.92-16.25-148.9-20.88
			c-26.18-2.43-51.18-3.61-76.67,3.76c-27.47,7.94-52.29,19.12-81.15,20.94"/>
		<path class="st42" d="M583.25,402.12c-27.93-3.64-37.7-21.8-60.66-34.26c-24.14-13.1-45.95-2.69-67.91,9.89
			c-21.79,12.48-44.57,32.2-70.28,35.69c-21.5,2.92-43.23-6.78-62.88-14.3c-48.65-18.61-99.23-16.49-150.81-19.19
			c-25.56-1.34-51.01-2.44-75.98,4.06c-26.64,6.94-50.82,16.8-78.61,18.12"/>
		<path class="st43" d="M583.25,391.78c-28.14-3.65-38.77-21.91-62.12-34.29c-24.55-13.01-45.67-2.74-67.59,10.63
			c-21.2,12.93-43.47,33.6-68.96,37.24c-21.95,3.13-44.41-7.74-64.22-15.82c-23.84-9.71-44.41-16.83-70.26-16.39
			c-27.42,0.47-54.85-0.83-82.26-1.28c-25.13-0.41-50.75-1.41-75.38,4.32c-25.87,6.02-49.54,14.66-76.34,15.59"/>
		<path class="st44" d="M583.25,381.43c-28.31-3.66-39.68-22.01-63.35-34.31c-24.87-12.93-45.46-2.85-67.32,11.22
			c-20.72,13.33-42.48,34.79-67.85,38.55c-22.34,3.32-45.39-8.55-65.34-17.09c-24.08-10.31-45.02-18.4-71.41-17.59
			c-27.49,0.84-55.01,0.83-82.51,1.23c-24.87,0.36-50.45-0.55-74.92,4.52c-25.21,5.23-48.48,12.76-74.43,13.47"/>
		<path class="st45" d="M583.25,371.09c-28.4-3.67-40.4-22.09-64.29-34.33c-25.1-12.86-45.33-3-67.11,11.62
			c-20.38,13.68-41.65,35.72-66.98,39.57c-22.69,3.45-46.1-9.12-66.18-18.04c-24.27-10.78-45.45-19.54-72.25-18.54
			c-27.57,1.03-55.15,2.15-82.72,3.23c-24.77,0.97-50.18,0.1-74.62,4.66c-24.67,4.6-47.71,11.18-72.96,11.84"/>
		<path class="st46" d="M583.25,360.74c-28.42-3.68-40.88-22.16-64.89-34.34c-25.22-12.79-45.27-3.21-66.98,11.81
			c-20.22,13.98-40.99,36.35-66.41,40.24c-23,3.53-46.48-9.42-66.7-18.63c-24.41-11.12-45.63-20.15-72.72-19.2
			c-27.64,0.97-55.24,3.05-82.86,4.6c-24.79,1.39-50,0.52-74.53,4.72c-24.29,4.17-47.27,10.01-72.03,10.8"/>
		<path class="st47" d="M583.25,350.4c-28.18-3.85-41.12-22.11-65.07-34.18c-25.32-12.76-45.13-3.49-66.91,11.71
			c-20.25,14.13-40.8,36.52-66.33,40.45c-23.21,3.58-46.48-9.4-66.8-18.8c-24.54-11.35-45.6-20.22-72.87-19.54
			c-27.62,0.69-55.17,3.52-82.73,5.32c-24.92,1.62-49.94,0.78-74.65,4.75c-24.1,3.88-47.29,9.07-71.75,10.29"/>
		<path class="st48" d="M583.25,340.05c-27.6-4.09-41.34-21.46-65.11-33.1c-25.61-12.54-44.91-3.56-67.03,11.66
			c-20.44,14.06-41.35,36.39-66.95,40.4c-23.34,3.65-46.49-9.46-66.83-19.06c-24.62-11.61-45.61-20.5-73.07-19.94
			c-27.34,0.56-54.56,4.22-81.8,6.38c-24.92,1.98-49.78,1.4-74.59,4.76c-23.98,3.24-47.56,7.33-71.74,8.9"/>
		<path class="st49" d="M583.25,329.71c-26.95-4.02-41.58-20.28-65.17-31.2c-25.96-12.01-44.95-3.27-67.42,11.86
			c-20.76,13.99-42.19,36.29-67.99,40.31c-23.54,3.67-46.6-9.72-66.98-19.6c-24.61-11.93-45.63-21.19-73.26-20.51
			c-26.91,0.66-53.61,5.32-80.35,8.04c-48.26,4.91-97.48,7.88-145.95,11.09"/>
		<path class="st50" d="M583.25,319.36c-26.26-3.72-41.84-18.66-65.26-28.61c-26.35-11.2-45.21-2.71-68.05,12.28
			c-21.19,13.91-43.28,36.21-69.37,40.19c-23.8,3.64-46.8-10.15-67.24-20.38c-24.51-12.27-45.66-22.22-73.44-21.22
			c-26.37,0.94-52.37,6.75-78.46,10.2c-47.83,6.32-97.14,4.83-145.31,7.54"/>
		<path class="st51" d="M583.25,309.01c-25.53-3.24-42.14-16.67-65.37-25.47c-26.78-10.15-45.63-1.92-68.86,12.87
			c-21.7,13.82-44.58,36.14-71.04,40.05c-24.1,3.56-47.07-10.71-67.58-21.35c-24.32-12.61-45.71-23.54-73.61-22.06
			c-25.75,1.37-50.89,8.45-76.21,12.77c-47.8,8.14-96.32,1.41-144.46,3.19"/>
		<path class="st52" d="M583.25,298.67c-24.79-2.65-42.47-14.39-65.48-21.9c-27.22-8.88-46.17-0.98-69.82,13.59
			c-22.28,13.73-46.02,36.09-72.92,39.89c-24.43,3.45-47.41-11.39-67.98-22.47c-24.12-12.99-45.75-24.97-73.78-22.98
			c-25.06,1.78-49.27,10.38-73.69,15.65c-48.33,10.43-94.97-2.29-143.45-1.78"/>
		<path class="st53" d="M583.25,288.32c-24.07-1.99-42.81-11.9-65.61-18.03c-27.67-7.43-46.77,0.06-70.87,14.41
			c-22.89,13.63-47.57,36.05-74.96,39.71c-24.78,3.32-47.78-12.14-68.43-23.69c-23.77-13.29-45.88-26.68-73.95-23.97
			c-24.37,2.35-47.51,12.46-70.97,18.76c-49.34,13.24-93.2-6.16-142.32-7.19"/>
		<path class="st54" d="M583.25,277.98c-23.4-1.33-43.17-9.28-65.75-13.98c-28.09-5.85-47.41,1.14-71.99,15.28
			c-23.54,13.54-49.18,36.01-77.08,39.53c-25.14,3.17-48.19-12.94-68.9-24.97c-23.64-13.73-45.86-28.1-74.12-25
			c-23.62,2.59-45.82,14.67-68.14,21.99c-50.55,16.56-91.28-10.08-141.13-12.85"/>
		<path class="st55" d="M583.25,267.63c-22.84-0.69-43.51-6.6-65.89-9.89c-28.47-4.18-48.04,2.22-73.12,16.16
			c-24.18,13.44-50.8,35.98-79.23,39.35c-25.51,3.02-48.61-13.76-69.39-26.27c-23.23-13.98-46.05-29.9-74.28-26.03
			c-22.98,3.15-44.02,16.9-65.29,25.25c-51.62,20.27-89.54-14-139.92-18.58"/>
		<path class="st56" d="M583.25,257.29c-22.43-0.1-43.8-3.95-66.02-5.88c-28.78-2.5-48.64,3.26-74.22,17.02
			c-24.82,13.35-52.38,35.95-81.34,39.17c-25.87,2.87-49.01-14.56-69.86-27.54c-22.77-14.17-46.3-31.7-74.45-27.05
			c-22.41,3.7-42.27,19.11-62.48,28.46c-52.3,24.18-88.22-17.87-138.75-24.18"/>
		<path class="st57" d="M583.25,246.94c-22.17,0.41-44.02-1.41-66.15-2.08c-29-0.88-49.2,4.22-75.26,17.81
			c-25.42,13.26-53.89,35.91-83.34,38.99c-26.21,2.74-49.4-15.32-70.29-28.73c-22.31-14.32-46.58-33.43-74.62-28.02
			c-21.92,4.23-40.61,21.24-59.81,31.51c-52.51,28.08-87.39-21.68-137.65-29.48"/>
		<path class="st58" d="M583.25,236.6c-49.88,1.84-96.65-3.36-142.44,19.88c-25.97,13.18-55.26,35.86-85.17,38.84
			c-26.52,2.64-49.74-16-70.68-29.81c-21.86-14.41-46.88-35.03-74.79-28.92c-21.54,4.71-39.08,23.2-57.36,34.31
			c-52.33,31.79-86.99-25.35-136.68-34.3"/>
		<path class="st59" d="M583.25,226.25c-48.97,2.42-98.7,1.32-143.3,23.42c-26.46,13.11-56.46,35.8-86.76,38.7
			c-26.79,2.57-50.02-16.57-71-30.73c-21.46-14.49-47.16-36.42-74.97-29.72c-21.27,5.12-37.72,24.94-55.21,36.77
			c-51.93,35.13-86.89-28.78-135.89-38.43"/>
		<path class="st60" d="M583.25,215.91c-48.15,2.63-100.36,5-143.94,26.18c-26.86,13.05-57.43,35.72-88.05,38.59
			c-27.02,2.54-50.23-17-71.22-31.44c-21.14-14.54-47.4-37.54-75.15-30.4c-21.13,5.44-36.59,26.36-53.44,38.79
			c-51.5,38-86.96-31.85-135.32-41.71"/>
		<path class="st61" d="M583.25,205.56c-47.4,2.41-101.61,7.54-144.32,27.99c-27.15,13-58.12,35.6-88.97,38.51
			c-27.19,2.56-50.34-17.25-71.34-31.91c-20.92-14.6-47.58-38.33-75.34-30.92c-21.12,5.64-35.73,27.39-52.13,40.29
			C99.9,289.8,64.09,215.09,16.13,205.56"/>
		<path class="st62" d="M583.25,195.22c-22.85,0.83-44.04,6.2-66.52,9.27c-29.23,3.99-50.22,6.3-77.85,19.41
			c-27.33,12.97-58.5,35.46-89.45,38.47c-27.29,2.65-50.34-17.29-71.33-32.08c-20.83-14.68-47.67-38.73-75.54-31.27
			c-21.27,5.7-35.17,27.94-51.37,41.15c-51.35,41.88-87.11-36.37-135.04-44.96"/>
	</g>
</g>
<text transform="matrix(0.9011 0 0 1 24.9141 56.7666)"><tspan x="0" y="0" class="st63 st64 st65">POSTERS </tspan><tspan x="0" y="60.29" class="st63 st64 st65">IN</tspan><tspan x="0" y="120.59" class="st63 st64 st65">ILLUSTRATOR</tspan></text>
<text transform="matrix(1.2113 0 0 1 325.414 32.7666)"><tspan x="0" y="0" class="st63 st64 st66">A lot of text a lot of text a lot of text a lot of text</tspan><tspan x="0" y="12" class="st63 st64 st66">a lot of text a lot of text a lot of text a lot of text</tspan><tspan x="0" y="24" class="st63 st64 st66">a lot of text a lot of text a lot of text a lot of text</tspan><tspan x="0" y="36" class="st63 st64 st66">a lot of text a lot of text </tspan><tspan x="0" y="48" class="st63 st64 st66">a lot of text a lot of text a lot of text a lot of text</tspan><tspan x="0" y="60" class="st63 st64 st66">a lot of text a lot of text a lot of text a lot of text</tspan><tspan x="0" y="72" class="st63 st64 st66">a lot of text a lot of text a lot of text a lot of text</tspan><tspan x="0" y="84" class="st63 st64 st66">a lot of text a lot of text a </tspan><tspan x="0" y="96" class="st63 st64 st66">a lot of text a lot of text a lot of text a lot of text</tspan><tspan x="0" y="108" class="st63 st64 st66">a lot of text a lot of text a lot of text a lot of text.</tspan></text>
</svg>
